<?xml version="1.0" standalone="no"?>
<!DOCTYPE svg PUBLIC "-//W3C//DTD SVG 20010904//EN"
 "http://www.w3.org/TR/2001/REC-SVG-20010904/DTD/svg10.dtd">
<svg version="1.0" xmlns="http://www.w3.org/2000/svg"
 width="736.000000pt" height="953.000000pt" viewBox="0 0 736.000000 953.000000"
 preserveAspectRatio="xMidYMid meet">

<g transform="translate(0.000000,953.000000) scale(0.100000,-0.100000)"
fill="#FF69B4" stroke="none">
<path d="M3295 8886 c-22 -7 -95 -41 -163 -76 -112 -57 -130 -64 -186 -64 -57
-1 -72 4 -189 63 -122 61 -131 64 -215 68 -78 4 -92 2 -132 -19 -35 -18 -51
-36 -72 -78 -16 -29 -28 -67 -28 -83 l0 -30 -107 7 c-135 8 -168 2 -182 -33
-31 -80 -21 -168 36 -314 34 -87 36 -97 33 -192 -7 -226 -6 -246 22 -300 33
-64 104 -130 174 -162 29 -13 97 -33 150 -44 119 -24 139 -33 239 -114 44 -35
103 -76 130 -91 28 -15 78 -54 113 -86 34 -32 81 -67 102 -78 22 -11 40 -22
40 -24 0 -19 64 -564 80 -681 27 -200 40 -274 115 -651 103 -520 131 -736 141
-1084 10 -352 -9 -613 -96 -1275 -103 -786 -120 -979 -120 -1345 0 -179 6
-292 26 -475 50 -489 65 -659 72 -871 5 -160 10 -218 20 -222 9 -3 12 26 12
121 l0 125 51 108 c68 145 162 430 205 619 46 205 77 406 119 784 45 403 55
456 100 536 30 54 41 66 73 75 20 5 47 10 59 10 11 0 62 13 111 29 187 61 295
136 370 254 56 88 98 123 169 137 108 23 277 -6 420 -70 65 -29 127 -43 68
-15 -367 175 -427 199 -564 226 -58 11 -62 13 -40 22 47 20 217 11 314 -15 50
-14 99 -28 110 -32 11 -4 8 0 -6 8 -15 9 -62 25 -105 38 -145 41 -436 25 -535
-29 -58 -31 -182 -154 -250 -248 -28 -38 -76 -115 -107 -170 -80 -142 -112
-191 -112 -172 0 74 95 467 158 657 78 231 127 346 285 665 311 625 636 1306
734 1536 l45 107 37 -5 c20 -2 88 5 151 17 63 11 158 25 210 31 52 5 122 17
155 25 86 22 217 74 240 95 58 52 144 118 175 134 19 10 75 24 123 31 61 10
107 23 147 45 69 37 140 95 140 115 0 15 -69 54 -95 54 -28 0 -7 17 29 24 46
9 145 74 184 122 18 21 40 60 50 87 15 43 20 47 48 47 53 0 157 -37 198 -71
40 -34 66 -81 66 -123 0 -14 -15 -54 -34 -88 -19 -35 -42 -97 -51 -138 -26
-117 -43 -164 -77 -214 -92 -140 -285 -181 -633 -137 -93 12 -207 23 -252 24
-46 1 -83 5 -83 8 0 3 37 17 83 32 45 14 74 26 65 26 -9 1 -61 -15 -115 -34
-54 -19 -111 -35 -128 -36 -16 0 -39 -4 -50 -9 -12 -5 37 -9 130 -9 93 -1 209
-9 305 -22 179 -24 380 -28 460 -9 120 28 225 103 270 190 12 23 30 83 41 133
11 55 35 124 59 172 45 90 49 128 20 186 -34 66 -147 131 -255 146 -42 5 -43
6 -51 52 -4 25 -8 114 -8 197 -1 106 -5 156 -14 167 -19 23 -100 54 -198 77
-147 35 -209 84 -281 227 -54 106 -73 118 -198 118 -59 1 -109 6 -122 13 -12
7 -67 19 -122 26 -112 16 -126 22 -196 83 -77 67 -127 86 -206 81 -83 -6 -206
-63 -293 -136 -59 -49 -60 -50 -96 -37 -49 17 -134 28 -159 20 -12 -3 -39 -38
-62 -78 -28 -48 -79 -109 -155 -185 -179 -179 -225 -265 -232 -428 -6 -151 33
-265 135 -391 73 -90 117 -125 263 -209 177 -101 191 -111 250 -178 57 -65 67
-97 15 -46 -19 18 -37 31 -41 28 -7 -8 29 -78 82 -159 24 -37 44 -70 44 -74 0
-27 -304 -680 -535 -1150 -92 -187 -216 -439 -275 -560 -155 -315 -238 -527
-310 -790 -81 -296 -113 -488 -170 -995 -65 -585 -122 -889 -224 -1195 -24
-71 -62 -168 -83 -215 l-40 -85 -7 65 c-3 36 -13 142 -22 235 -8 94 -24 244
-34 335 -36 316 -43 442 -37 712 6 334 29 560 136 1348 17 124 42 336 55 472
l23 246 53 98 c107 199 192 314 253 345 146 74 270 192 336 318 53 103 78 192
95 341 11 97 21 140 45 193 17 38 31 73 31 78 0 20 -17 7 -35 -28 -46 -90 -74
-118 -225 -233 -251 -191 -270 -223 -350 -576 -37 -165 -60 -227 -118 -319
-14 -22 -38 -62 -53 -88 l-26 -49 -6 314 c-7 405 -28 584 -119 1028 -60 297
-104 540 -127 701 -22 159 -81 674 -81 712 0 17 16 34 59 65 33 23 78 64 101
91 28 33 66 62 113 87 126 65 204 121 304 217 115 110 157 136 278 172 178 54
280 127 336 241 28 57 32 75 32 147 0 125 -32 187 -144 282 -50 41 -70 68
-112 150 -45 86 -58 103 -101 130 -47 28 -55 30 -150 29 -78 0 -115 -5 -161
-22 l-59 -22 -46 45 c-25 24 -62 51 -82 60 -44 18 -118 19 -173 1z m168 -30
c72 -30 150 -148 200 -301 70 -215 57 -304 -87 -596 -54 -107 -248 -419 -262
-419 -1 0 10 28 26 63 16 34 31 76 35 92 5 27 4 27 -9 -6 -24 -61 -57 -122
-98 -176 -41 -56 -56 -68 -38 -30 10 20 9 20 -9 -3 -11 -14 -21 -27 -21 -30 0
-7 -55 -40 -67 -40 -14 0 -12 38 4 120 8 41 16 131 18 200 l4 125 -9 -115
c-12 -162 -43 -320 -61 -320 -4 0 -11 17 -15 38 -30 177 -77 312 -107 312 -8
0 -9 -2 -1 -8 19 -12 51 -84 68 -152 20 -81 32 -190 21 -190 -30 0 -162 96
-242 176 -85 85 -97 102 -152 216 -38 80 -72 170 -96 258 -61 223 -84 289
-153 425 -76 151 -85 197 -54 268 52 117 198 127 375 27 169 -97 239 -98 406
-8 52 28 115 59 140 69 55 22 140 24 184 5z m447 -66 c50 -14 93 -63 143 -161
35 -70 53 -93 105 -134 112 -90 155 -192 133 -316 -25 -147 -139 -245 -361
-312 -108 -33 -159 -66 -279 -180 -60 -57 -136 -116 -199 -154 -56 -35 -104
-63 -106 -63 -3 0 33 37 80 82 47 46 95 96 106 113 11 16 -6 2 -39 -31 -50
-53 -121 -115 -188 -164 -21 -16 -1 9 114 144 40 48 71 89 68 92 -3 3 43 101
102 217 118 232 146 316 145 432 -1 83 -41 239 -84 330 -17 35 -30 65 -30 68
0 6 72 33 105 40 39 9 151 7 185 -3z m-1608 -156 c13 -5 158 -293 158 -314 0
-6 -6 -8 -12 -4 -7 4 -6 -1 3 -12 18 -20 49 -78 49 -90 0 -4 -10 1 -22 12 -49
43 -60 45 -17 3 39 -38 49 -54 59 -104 14 -68 54 -198 82 -265 21 -52 25 -56
-80 79 -35 45 -69 81 -75 81 -6 0 5 -17 25 -37 20 -21 94 -117 166 -213 71
-96 161 -206 200 -244 39 -38 69 -73 66 -78 -9 -14 -57 -9 -99 11 -22 10 -71
44 -109 75 -38 31 -83 64 -100 73 -17 8 -65 47 -106 87 -41 39 -66 60 -55 46
10 -14 35 -39 54 -57 20 -17 33 -34 31 -36 -10 -10 -187 34 -237 59 -67 32
-137 110 -159 176 -14 42 -15 67 -8 142 16 166 12 200 -35 325 -34 92 -43 127
-44 185 0 42 5 81 12 95 13 24 14 24 126 17 62 -3 119 -9 127 -12z m2995 -849
c20 -9 59 -35 87 -59 74 -63 108 -77 220 -92 97 -12 102 -14 137 -51 53 -57
76 -151 62 -248 -11 -75 -58 -193 -93 -230 -13 -14 -18 -35 -18 -70 2 -83 -82
-268 -109 -242 -3 4 14 65 38 137 41 121 43 131 27 146 -23 23 -44 5 -51 -44
-19 -127 -59 -230 -101 -258 -15 -9 -29 -15 -31 -12 -3 3 8 30 25 61 16 31 30
67 30 79 0 34 11 68 21 68 5 0 9 -12 9 -27 0 -41 12 -19 16 31 4 38 1 46 -21
60 -14 9 -30 14 -35 11 -13 -8 -13 -65 0 -65 13 0 13 -12 0 -45 -9 -23 -13
-25 -25 -15 -12 10 -16 9 -21 -4 -3 -9 -3 -23 0 -32 5 -13 9 -14 21 -4 24 20
18 -5 -8 -37 -13 -15 -29 -37 -36 -48 -11 -18 -12 -17 -6 10 17 78 33 250 25
265 -7 11 -9 4 -10 -24 0 -63 -32 -270 -43 -284 -18 -22 -36 26 -37 93 0 64
15 135 29 135 13 0 21 27 15 45 -7 17 -40 20 -50 4 -4 -8 -9 -7 -15 2 -14 23
-11 -18 4 -44 8 -15 11 -49 7 -107 l-5 -85 -13 60 c-33 151 -76 238 -136 274
-17 10 -78 36 -136 56 -58 21 -137 52 -176 70 -83 38 -98 62 -98 164 -1 119
63 210 211 300 109 67 215 87 290 56z m-538 -146 c28 -6 53 -15 56 -19 3 -5
-4 -29 -17 -52 -17 -34 -22 -60 -23 -123 0 -44 3 -92 7 -107 7 -24 5 -27 -21
-33 -23 -5 -33 -15 -41 -41 -21 -62 -5 -111 72 -214 16 -22 22 -43 21 -81 0
-28 -5 -54 -9 -58 -5 -3 -10 -20 -11 -38 -1 -17 -14 -71 -28 -120 -37 -124
-43 -241 -17 -316 27 -74 12 -63 -58 43 -54 82 -80 110 -39 43 12 -21 33 -58
46 -83 l25 -45 -47 49 c-25 27 -66 83 -90 125 -54 92 -60 86 -8 -7 25 -47 67
-97 137 -164 55 -54 97 -98 92 -98 -14 0 -130 71 -176 108 -25 20 -79 66 -120
102 -108 94 -127 104 -41 21 40 -40 72 -73 70 -75 -12 -12 -120 79 -171 142
-101 128 -138 223 -138 358 0 160 58 270 232 444 57 58 117 128 133 155 56 98
68 105 164 84z m1192 -55 c20 -10 41 -39 70 -95 47 -95 106 -162 169 -194 25
-12 88 -32 140 -45 107 -25 154 -42 166 -61 7 -13 17 -276 14 -398 -3 -127
-118 -244 -261 -267 -39 -7 -40 -6 -142 93 -56 55 -122 112 -147 126 -44 25
-123 49 -167 49 -16 0 -23 6 -23 21 0 19 -1 19 -12 5 -14 -18 -128 -30 -128
-14 0 14 43 86 52 86 4 0 8 -9 8 -19 0 -25 15 -34 28 -18 8 10 6 22 -8 45 -28
45 -18 109 18 123 21 8 24 14 18 40 -4 23 3 47 29 100 72 142 82 264 31 375
-26 57 -26 57 19 68 30 7 93 -3 126 -20z m-1098 -331 c18 -9 95 -40 172 -69
85 -32 155 -65 178 -84 46 -39 79 -102 102 -200 19 -80 84 -218 95 -201 3 6
44 23 91 37 149 46 333 43 437 -7 27 -13 94 -68 157 -129 72 -70 132 -119 173
-140 34 -18 62 -36 62 -41 0 -9 -84 -71 -126 -92 -17 -9 -71 -23 -120 -32
-118 -21 -133 -28 -233 -103 -145 -109 -302 -170 -481 -187 -51 -5 -77 -2
-119 13 l-53 20 58 40 c92 63 189 171 249 277 38 67 27 56 -34 -37 -51 -76
-196 -222 -211 -213 -4 3 -20 -5 -35 -17 -18 -14 -47 -23 -82 -26 l-55 -5 24
25 c12 13 28 22 34 20 17 -5 123 132 111 144 -2 2 -20 -20 -41 -50 -39 -57
-84 -103 -74 -76 3 8 53 88 111 177 86 134 108 176 126 241 29 108 26 136 -5
34 -28 -97 -42 -126 -122 -253 -118 -189 -152 -238 -171 -244 -25 -8 -98 31
-107 57 -3 11 -27 43 -53 72 -77 85 -130 190 -151 298 -11 57 -1 119 46 281
22 79 34 140 34 181 0 58 -4 69 -45 131 -49 75 -63 122 -46 154 14 26 59 28
104 4z m712 -442 c-4 -17 -10 -31 -15 -31 -4 0 -3 16 3 35 13 42 22 39 12 -4z
m-1425 -1261 c-13 -46 -109 -224 -175 -325 -73 -113 -238 -334 -298 -400 l-45
-50 34 150 c55 243 97 337 190 427 41 39 284 226 296 227 4 1 3 -13 -2 -29z
m-15 -167 c-31 -164 -114 -328 -208 -408 -46 -40 -207 -148 -212 -143 -2 2 43
66 100 142 119 161 208 301 280 438 57 110 65 104 40 -29z m340 -1828 c81 -8
192 -39 270 -74 36 -17 65 -32 65 -34 0 -3 -30 2 -67 10 -87 19 -185 12 -239
-15 -39 -20 -66 -53 -133 -164 -34 -57 -128 -135 -206 -173 -80 -38 -238 -89
-256 -83 -7 2 8 19 34 37 26 18 45 36 42 40 -2 5 24 30 58 57 131 103 171 128
131 82 -15 -17 -10 -15 18 6 21 15 36 33 35 38 -1 6 4 13 12 16 9 3 11 0 6 -9
-5 -8 -4 -11 1 -6 5 5 9 13 9 18 0 4 16 22 35 39 76 68 -195 -128 -375 -270
-27 -22 -54 -40 -58 -40 -29 0 190 327 279 416 99 99 158 127 244 119 19 -2
62 -7 95 -10z m-260 -285 c-3 -5 -11 -10 -16 -10 -6 0 -7 5 -4 10 3 6 11 10
16 10 6 0 7 -4 4 -10z"/>
<path d="M3121 8074 c0 -11 3 -14 6 -6 3 7 2 16 -1 19 -3 4 -6 -2 -5 -13z"/>
<path d="M3132 8015 c0 -16 2 -22 5 -12 2 9 2 23 0 30 -3 6 -5 -1 -5 -18z"/>
<path d="M3143 7910 c0 -30 2 -43 4 -27 2 15 2 39 0 55 -2 15 -4 2 -4 -28z"/>
<path d="M2855 7680 c10 -11 20 -20 23 -20 3 0 -3 9 -13 20 -10 11 -20 20 -23
20 -3 0 3 -9 13 -20z"/>
<path d="M3212 7670 c0 -14 2 -19 5 -12 2 6 2 18 0 25 -3 6 -5 1 -5 -13z"/>
<path d="M2910 7615 c19 -22 39 -44 44 -50 5 -5 4 -1 -2 10 -6 11 -25 33 -44
50 l-33 30 35 -40z"/>
<path d="M3201 7614 c0 -11 3 -14 6 -6 3 7 2 16 -1 19 -3 4 -6 -2 -5 -13z"/>
<path d="M3191 7579 c-1 -9 -14 -43 -31 -75 -16 -32 -27 -60 -25 -63 8 -7 67
128 62 141 -4 9 -6 7 -6 -3z"/>
<path d="M3010 7486 c0 -2 8 -10 18 -17 15 -13 16 -12 3 4 -13 16 -21 21 -21
13z"/>
<path d="M3549 7798 c-53 -74 -62 -88 -55 -88 5 0 83 108 100 138 19 32 -6 6
-45 -50z"/>
<path d="M2409 8073 c26 -38 49 -56 33 -27 -6 11 -20 28 -33 39 l-23 20 23
-32z"/>
<path d="M5317 7259 c-21 -12 -21 -24 0 -53 16 -21 18 -21 35 -4 10 10 18 25
18 33 0 21 -32 35 -53 24z"/>
<path d="M5172 7208 c-20 -20 -14 -35 14 -35 20 0 24 4 22 20 -4 25 -19 32
-36 15z"/>
<path d="M5567 7193 c-4 -3 -7 -22 -6 -42 0 -31 2 -33 9 -14 6 15 15 20 28 16
25 -6 38 13 22 32 -13 16 -42 20 -53 8z"/>
<path d="M5406 7154 c-12 -32 -6 -44 23 -44 32 0 48 24 30 46 -15 19 -45 18
-53 -2z"/>
<path d="M5837 7063 c-12 -11 -8 -35 8 -47 12 -10 12 -20 -5 -80 -34 -119 -33
-114 -16 -86 8 14 18 43 22 65 9 56 21 76 41 68 14 -5 15 -1 10 27 -10 50 -39
75 -60 53z"/>
<path d="M5776 6875 c-3 -9 -6 -22 -5 -28 0 -7 5 -1 10 12 5 13 8 26 5 28 -2
2 -6 -3 -10 -12z"/>
<path d="M5858 6856 c-6 -32 28 -55 37 -26 4 12 0 26 -9 35 -20 20 -23 19 -28
-9z"/>
<path d="M5281 6159 c-18 -22 -31 -42 -28 -45 2 -2 15 10 29 28 50 68 50 78
-1 17z"/>
<path d="M4084 3178 l-19 -23 23 19 c21 18 27 26 19 26 -2 0 -12 -10 -23 -22z"/>
<path d="M2410 7042 c-19 -10 -57 -31 -84 -45 -27 -15 -59 -27 -72 -27 -12 0
-60 18 -106 41 -77 38 -88 40 -150 36 -81 -5 -136 -34 -200 -106 -34 -38 -89
-127 -104 -169 0 -1 -41 17 -90 40 -83 39 -95 42 -174 43 -69 0 -93 -4 -127
-22 -63 -34 -144 -119 -194 -203 -27 -47 -79 -110 -136 -167 -98 -97 -124
-138 -148 -230 -27 -102 -14 -187 41 -279 19 -31 33 -59 31 -61 -2 -2 -42 -13
-88 -24 -46 -12 -102 -31 -124 -42 -59 -30 -195 -136 -195 -152 0 -26 107
-131 163 -158 78 -38 126 -46 261 -47 93 0 151 -7 269 -31 200 -41 321 -39
439 8 42 17 79 26 80 21 5 -14 109 -38 169 -38 66 0 181 28 262 63 l57 26 15
-22 c60 -92 301 -628 431 -958 305 -779 366 -1189 350 -2379 -4 -289 -11 -550
-14 -580 l-7 -55 -24 100 c-23 98 -127 457 -198 685 -80 256 -240 691 -426
1160 l-105 265 10 485 c12 519 4 870 -19 878 -10 3 -13 -116 -14 -570 -1 -315
-4 -604 -8 -643 l-6 -70 -59 145 c-33 80 -88 206 -124 280 -35 74 -76 171 -92
215 -81 237 -171 325 -352 347 -72 8 -102 19 -223 79 -98 48 -178 79 -265 102
-164 45 -210 52 -210 33 0 -10 19 -18 57 -26 32 -6 76 -19 98 -29 62 -28 149
-114 224 -220 128 -180 207 -231 486 -311 183 -53 176 -49 223 -148 111 -235
425 -1000 416 -1011 -7 -8 -160 165 -207 232 -59 88 -98 129 -156 167 -84 56
-143 72 -301 79 -120 6 -152 11 -186 29 -33 17 -165 61 -296 99 -10 3 -18 0
-18 -6 0 -7 30 -26 68 -43 103 -48 147 -81 282 -213 116 -113 192 -172 263
-203 57 -25 153 -31 259 -17 59 7 110 10 119 5 22 -12 140 -139 188 -203 128
-169 591 -1629 591 -1863 0 -83 -22 -342 -44 -519 -13 -104 -9 -143 13 -120 9
11 44 315 61 525 17 232 25 592 25 1195 -1 486 -4 638 -18 802 -21 237 -64
509 -107 672 -103 384 -327 955 -581 1480 l-79 163 16 46 c8 25 18 74 21 108
l6 62 36 6 c20 3 69 21 109 41 96 46 181 130 224 220 28 61 32 82 43 233 13
175 25 227 75 317 41 71 55 135 40 177 -6 18 -57 87 -113 153 -136 159 -195
190 -277 147z m139 -41 c16 -12 63 -62 103 -112 40 -50 84 -105 98 -122 38
-46 32 -92 -30 -221 l-53 -108 -8 -152 c-9 -175 -12 -191 -51 -269 -36 -71
-84 -126 -149 -168 -48 -31 -179 -84 -179 -73 0 3 18 32 40 64 61 89 117 213
136 297 24 110 16 260 -18 334 -71 156 -234 236 -365 179 -48 -20 -53 -21 -75
-6 -13 9 -72 32 -133 51 -60 19 -119 41 -130 49 -20 15 -20 16 10 72 45 86
138 177 198 194 66 18 134 7 203 -31 80 -46 133 -45 211 3 32 19 65 38 73 41
27 11 88 0 119 -22z m-1028 -187 c30 -9 99 -40 154 -69 55 -29 136 -63 181
-75 88 -23 148 -54 142 -72 -3 -7 -21 -26 -42 -42 -35 -28 -44 -31 -109 -30
-40 0 -93 4 -118 9 -68 11 -98 -9 -154 -103 -31 -52 -80 -112 -142 -173 -52
-52 -106 -113 -120 -137 -18 -30 -31 -42 -42 -39 -9 3 -25 7 -36 11 -11 3 -4
-1 15 -11 l35 -16 0 -76 c0 -42 4 -89 9 -104 l9 -29 -29 15 c-54 27 -144 40
-240 33 l-92 -7 -26 34 c-61 80 -85 179 -66 273 19 92 54 148 153 247 57 57
109 121 136 166 110 186 220 242 382 195z m754 -207 c65 -33 97 -68 132 -142
26 -56 28 -68 27 -190 0 -157 -16 -212 -102 -355 l-57 -95 -6 80 -5 80 -2 -71
c-2 -62 -23 -156 -41 -176 -3 -4 -4 37 -3 92 3 71 -1 115 -13 157 -19 66 -75
188 -99 218 -9 11 -1 -11 18 -50 52 -107 70 -192 71 -325 0 -101 -3 -121 -23
-163 -27 -53 -45 -62 -132 -62 -74 0 -103 9 -147 48 l-37 32 23 -33 c12 -18
36 -39 52 -47 43 -23 36 -28 -29 -23 -66 6 -149 44 -202 92 -34 30 -33 29 3
-10 22 -23 57 -50 78 -59 45 -21 52 -38 12 -29 -84 19 -115 30 -186 65 -136
68 -246 166 -282 252 -8 20 -15 63 -15 95 0 87 35 147 149 260 65 62 111 118
141 170 54 92 73 102 158 84 127 -26 171 -13 267 78 22 20 49 43 60 49 32 19
134 7 190 -22z m-1014 -761 c47 -19 83 -44 127 -88 34 -33 62 -64 62 -68 0 -9
141 -74 239 -110 l74 -27 -64 -36 c-153 -85 -282 -98 -496 -51 -83 18 -167 28
-283 34 -202 9 -255 26 -337 104 -29 29 -53 57 -53 63 0 12 121 113 159 133
36 19 145 46 291 74 14 2 68 3 120 2 77 -2 108 -8 161 -30z m643 -320 c-8 -22
-54 -37 -129 -43 l-70 -5 33 21 c56 36 177 56 166 27z m-720 -612 c50 -20 128
-57 174 -81 70 -38 97 -47 180 -58 152 -20 208 -59 273 -188 26 -51 69 -159
69 -174 0 -17 -296 77 -395 126 -94 46 -149 96 -227 206 -62 88 -105 136 -158
177 -47 37 -25 35 84 -8z m244 -1132 c26 -10 94 -48 151 -85 58 -37 109 -67
115 -67 6 0 -24 21 -67 48 l-78 47 88 3 c184 6 318 -41 415 -146 62 -68 105
-142 83 -142 -26 0 -208 61 -258 87 -27 13 -51 22 -53 20 -7 -7 145 -73 209
-92 76 -22 63 -34 -44 -42 -70 -4 -95 -2 -149 17 -97 32 -152 71 -290 206 -69
67 -141 131 -160 143 -43 26 -26 27 38 3z"/>
<path d="M1890 3556 c0 -6 172 -67 177 -62 2 2 -35 18 -82 35 -89 32 -95 34
-95 27z"/>
<path d="M5795 6100 c-14 -7 -8 -8 20 -3 22 3 42 7 44 9 9 8 -45 2 -64 -6z"/>
<path d="M5938 6093 c6 -2 18 -2 25 0 6 3 1 5 -13 5 -14 0 -19 -2 -12 -5z"/>
<path d="M5888 6083 c6 -2 18 -2 25 0 6 3 1 5 -13 5 -14 0 -19 -2 -12 -5z"/>
</g>
</svg>
